# xmcd
#
# Track frame offsets:
# 150
# 16128
# 43148
# 70707
# 95637
# 120281
# 139187
# 152291
# 180404
# 201345
# 231045
# 250174
# 267393
# 286123
#
# Disc length: 4017 seconds
#
#
# Revision: 4
# Processed by: cddbd v1.5.2PL0 Copyright (c) Steve Scherf et al.
# Submitted via: FreeRIP 2.96 
#
DISCID=b60faf0e
DTITLE=Kosmos FM - The Colours Of Music - Vol 1
DYEAR=2002
DGENRE=World
TTITLE0=Angelique Kidjo - Summertime
TTITLE1=Salif Keita - Africa
TTITLE2=Baaba Maal - Africa Woman
TTITLE3=Vocal Samling - Mi Guantanamera
TTITLE4=Compay Segundo - Chan Chan
TTITLE5=Kad Achoury - Mi Negra
TTITLE6=Los Fabulosos Cadillacs - Rios De Lagrimas
TTITLE7=Rachid Taha - Ya Rayah
TTITLE8=Night Ark - Going With Abandon
TTITLE9=Mode Plagal - Pikrodafni
TTITLE10=Kronos Quartet - Misirlou Twist
TTITLE11=Khaled - Ragda
TTITLE12=Ernest Ranglin - Surfin
TTITLE13=Bob Marley - One Love
EXTD=
EXTT0=
EXTT1=
EXTT2=
EXTT3=
EXTT4=
EXTT5=
EXTT6=
EXTT7=
EXTT8=
EXTT9=
EXTT10=
EXTT11=
EXTT12=
EXTT13=
PLAYORDER=
